<?xml version="1.0" standalone="no"?>
<!DOCTYPE svg PUBLIC "-//W3C//DTD SVG 20010904//EN"
 "http://www.w3.org/TR/2001/REC-SVG-20010904/DTD/svg10.dtd">
<svg version="1.0" xmlns="http://www.w3.org/2000/svg"
 width="1280.000000pt" height="1280.000000pt" viewBox="0 0 1280.000000 1280.000000"
 preserveAspectRatio="xMidYMid meet">
<metadata>
Created by potrace 1.15, written by Peter Selinger 2001-2017
</metadata>
<g transform="translate(0.000000,1280.000000) scale(0.100000,-0.100000)"
fill="#000000" stroke="none">
<path d="M3200 9601 l-3205 -3200 3200 -3200 3200 -3201 3203 3202 3202 3203
-3197 3197 -3198 3198 -3205 -3199z m5895 -511 l2690 -2690 -2693 -2693 -2692
-2692 -2692 2692 -2693 2693 2690 2690 c1479 1479 2692 2690 2695 2690 3 0
1216 -1211 2695 -2690z"/>
<path d="M6383 10163 c-93 -223 -124 -334 -143 -505 -5 -54 -10 -243 -10 -422
0 -178 -5 -370 -10 -427 -28 -280 -110 -579 -235 -852 l-27 -59 -28 27 c-65
62 -103 162 -180 473 -73 296 -137 433 -239 508 -49 36 -153 74 -203 74 -27 0
-30 -3 -24 -22 38 -131 44 -225 20 -333 -8 -38 -33 -169 -56 -290 -36 -199
-40 -237 -41 -390 -1 -145 2 -183 21 -260 25 -99 62 -204 99 -278 l24 -48 -33
17 c-63 32 -155 103 -209 161 -30 32 -101 128 -159 213 -73 109 -133 184 -201
253 -54 53 -103 97 -109 97 -8 0 -10 -9 -6 -27 3 -16 11 -190 16 -388 11 -437
23 -554 75 -785 42 -187 127 -409 210 -551 20 -34 34 -63 32 -65 -7 -7 -171
25 -237 46 -143 47 -275 143 -524 379 -88 83 -161 149 -163 147 -2 -1 17 -101
41 -222 259 -1266 495 -1748 971 -1979 188 -92 361 -137 680 -179 195 -26 616
-68 622 -62 2 2 -25 9 -59 16 -166 32 -414 146 -563 257 -234 175 -410 415
-519 705 -20 53 -36 112 -36 130 l1 33 30 -37 c67 -82 208 -161 359 -201 110
-30 256 -50 317 -45 l43 3 -111 180 c-141 231 -215 376 -235 461 -17 73 -17
67 35 344 l17 95 32 -55 c18 -30 49 -95 69 -144 44 -104 102 -174 186 -224 55
-33 290 -142 307 -142 4 0 2 21 -6 46 -23 76 -34 237 -23 333 13 113 38 218
105 435 107 349 130 478 122 688 l-6 133 20 -39 c11 -21 73 -94 139 -162 66
-68 139 -155 164 -193 146 -226 215 -532 231 -1034 l7 -208 81 79 c94 91 137
121 264 187 110 56 136 85 201 218 l48 98 6 -77 c11 -128 8 -315 -7 -384 -43
-200 -152 -394 -334 -593 -61 -67 -53 -72 116 -72 125 0 144 3 217 29 84 30
193 82 257 122 49 31 58 30 26 -3 -48 -52 -106 -148 -161 -265 -67 -141 -112
-209 -207 -311 -78 -84 -254 -235 -401 -345 l-90 -67 73 -3 c90 -4 260 13 382
38 713 147 1163 678 1286 1520 24 168 40 373 39 510 l-1 105 -18 -63 c-63
-212 -240 -326 -598 -386 l-34 -6 44 49 c67 74 142 187 196 297 205 410 224
902 52 1302 -12 28 -25 52 -29 52 -4 0 -61 -82 -127 -182 -185 -279 -322 -411
-499 -478 -24 -9 -24 -9 9 58 63 125 100 268 115 437 14 154 -3 531 -28 657
-39 192 -129 413 -220 539 -37 50 -31 66 -66 -206 -47 -362 -80 -509 -141
-625 -45 -86 -81 -128 -147 -174 -47 -32 -184 -92 -192 -84 -2 2 5 59 15 128
26 170 26 377 0 491 -38 173 -70 253 -280 694 -273 574 -369 818 -412 1051 -6
35 -14 64 -18 64 -3 0 -11 -12 -17 -27z"/>
<path d="M4597 4013 c-4 -3 -7 -93 -7 -200 l0 -193 1930 0 1930 0 0 200 0 200
-1923 0 c-1058 0 -1927 -3 -1930 -7z"/>
</g>
</svg>
