<svg id="Layer_1" data-name="Layer 1" xmlns="http://www.w3.org/2000/svg" viewBox="0 0 946.72 715.5"><defs><style>.cls-1{fill:#f7f7f7;}.cls-2{fill:#b3b3b3;}.cls-3{fill:#bfbfbf;}.cls-4{fill:#e8e8e8;}.cls-5{fill:#c8c8c8;}.cls-6{fill:silver;}.cls-7{fill:#b8b8b8;}.cls-8{fill:#cdcdcd;}.cls-9{fill:#ebebeb;}.cls-10{fill:#959595;}.cls-11{fill:#505050;}.cls-12{fill:#ececec;}.cls-13{fill:#949494;}.cls-14{fill:#1b1b1b;}.cls-15{fill:#070707;}.cls-16{fill:#eaeaea;}.cls-17{fill:#e0e0e0;}.cls-18{fill:#717171;}.cls-19{fill:#ddd;}.cls-20{fill:#6b6b6b;}.cls-21{fill:#b7b7b7;}.cls-22{fill:#474747;}.cls-23{fill:#b9b9b9;}.cls-24{fill:#4a4a4a;}.cls-25{fill:#848484;}.cls-26{fill:#7f7f7f;}.cls-27{fill:#cbcbcb;}.cls-28{fill:#333;}.cls-29{fill:gray;}.cls-30{fill:#c7c7c7;}.cls-31{fill:#484848;}.cls-32{fill:#ababab;}.cls-33{fill:#626262;}.cls-34{fill:#f4f4f4;}.cls-35{fill:#6f6f6f;}.cls-36{fill:#4d4d4d;}.cls-37{fill:#d7d7d7;}.cls-38{fill:#d8d8d8;}.cls-39{fill:#616161;}.cls-40{fill:#3b3b3b;}.cls-41{fill:#c6c6c6;}.cls-42{fill:#989898;}.cls-43{fill:#8a8a8a;}.cls-44{fill:#545454;}.cls-45{fill:#d4d4d4;}.cls-46{fill:#c1c1c1;}.cls-47{fill:#343434;}.cls-48{fill:#7a7a7a;}.cls-49{fill:#525252;}.cls-50{fill:#b1b1b1;}.cls-51{fill:#a6a6a6;}.cls-52{fill:#444;}.cls-53{fill:#b0b0b0;}.cls-54{fill:#1a1a1a;}.cls-55{fill:#a2a2a2;}.cls-56{fill:#e6e6e6;}.cls-57{fill:#5b5b5b;}.cls-58{fill:#171717;}.cls-59{fill:#6e6e6e;}.cls-60{fill:#151515;}.cls-61{fill:#373737;}.cls-62{fill:#727272;}.cls-63{fill:#8c8c8c;}.cls-64{fill:#f9f9f9;}.cls-65{fill:#818181;}.cls-66{fill:#636363;}.cls-67{fill:#454545;}.cls-68{fill:#0c0c0c;}.cls-69{fill:#666;}.cls-70{fill:#d6d6d6;}.cls-71{fill:#393939;}.cls-72{fill:#8e8e8e;}.cls-73{fill:#efefef;}.cls-74{fill:#090909;}.cls-75{fill:#747474;}.cls-76{fill:#a1a1a1;}.cls-77{fill:#1c1c1c;}.cls-78{fill:#e3e3e3;}.cls-79{fill:#e9e9e9;}.cls-80{fill:#767676;}.cls-81{fill:#e5e5e5;}.cls-82{fill:#7e7e7e;}.cls-83{fill:#101010;}.cls-84{fill:#a4a4a4;}.cls-85{fill:#4b4b4b;}.cls-86{fill:#f0f0f0;}.cls-87{fill:#434343;}.cls-88{fill:#080808;}.cls-89{fill:#050505;}.cls-90{fill:#191919;}.cls-91{fill:#060606;}.cls-92{fill:#323232;}.cls-93{fill:#121212;}.cls-94{fill:#0f0f0f;}</style></defs><path class="cls-1" d="M49.09,697.22H26V651.06H49.09l1,.63c4,7.2,1.5,14.94,1.87,22.43-.37,7.51,2.1,15.25-1.86,22.46Z" transform="translate(-26 -143.28)"/><path class="cls-2" d="M534,858.78H487.81c-5.32-7.77-3.59-15.84-1-23.94,1.53-1.82,3.71-2,5.81-2.07,12.09-.42,24.19-.38,36.28,0,2.1.06,4.27.21,5.88,1.92C537.72,842.81,539.28,850.91,534,858.78Z" transform="translate(-26 -143.28)"/><path class="cls-3" d="M534,858.78V835.7c1.08-2.26,3.17-2.78,5.34-2.87,12.36-.49,24.72-.52,37.08,0a6.18,6.18,0,0,1,4.62,1.85c2.83,8.13,4.45,16.22-.85,24.07Z" transform="translate(-26 -143.28)"/><path class="cls-4" d="M395.45,858.78V835.7l.72-1.07c7.87-3.06,15.71-3.4,23.5.33,2.37,8.07,4.23,16.11-1.13,23.82Z" transform="translate(-26 -143.28)"/><path class="cls-5" d="M418.54,858.78V835.7c7.76-5.32,15.81-3.81,23.91-1,2.9,8.14,4.47,16.23-.82,24.09Z" transform="translate(-26 -143.28)"/><path class="cls-6" d="M441.63,858.78V835.7c7.76-5.32,15.81-3.81,23.91-1,2.9,8.14,4.48,16.23-.82,24.09Z" transform="translate(-26 -143.28)"/><path class="cls-7" d="M464.72,858.78V835.7c5.33-4.44,17.76-4.44,23.09,0v23.08Z" transform="translate(-26 -143.28)"/><path class="cls-8" d="M580.18,858.78V835.7c7.76-5.32,15.8-3.81,23.91-1,2.89,8.14,4.47,16.23-.82,24.09Z" transform="translate(-26 -143.28)"/><path class="cls-9" d="M603.27,858.78V835.7c7.23-5.36,14.79-3.71,22.4-1.05l.69,1.05v23.08Z" transform="translate(-26 -143.28)"/><path class="cls-10" d="M487.81,766.46H534c5.33,7.77,3.6,15.84,1,23.94-1.53,1.82-3.71,2-5.81,2.06-12.09.43-24.19.38-36.28,0-2.11-.06-4.27-.21-5.89-1.92C484.09,782.42,482.52,774.33,487.81,766.46Z" transform="translate(-26 -143.28)"/><path class="cls-11" d="M326.18,166.36h23.09c5.29,7.24,3.37,15,1.56,22.69a4.56,4.56,0,0,1-1.72,1.82c-7.94,2.32-15.85,3-23.71-.31-3.27-7.79-3.64-15.62-.29-23.49Z" transform="translate(-26 -143.28)"/><path class="cls-12" d="M349.27,189.44V166.36h23.09v23.08C366.58,193.84,354.88,193.84,349.27,189.44Z" transform="translate(-26 -143.28)"/><path class="cls-13" d="M649.45,189.44V166.36h23.09C677.84,174,676,182,673.71,190c-7.76,4.07-15.62,3.49-23.54.5Z" transform="translate(-26 -143.28)"/><path class="cls-14" d="M672.54,189.44V166.36h23.09c5.32,7.8,3.63,15.87.94,24C688.43,193.35,680.36,194.73,672.54,189.44Z" transform="translate(-26 -143.28)"/><path class="cls-15" d="M695.63,189.44V166.36h23.09c5.32,7.8,3.63,15.87.94,24C711.52,193.35,703.45,194.73,695.63,189.44Z" transform="translate(-26 -143.28)"/><path class="cls-11" d="M718.72,189.44V166.36h23.09c5.3,7.23,3.37,15,1.57,22.68a4.54,4.54,0,0,1-1.71,1.82c-6.15,2.67-12.55,1.71-18.91,1.29A4.5,4.5,0,0,1,718.72,189.44Z" transform="translate(-26 -143.28)"/><path class="cls-16" d="M741.81,189.44V166.36H764.9v23.08C759.12,193.84,747.42,193.84,741.81,189.44Z" transform="translate(-26 -143.28)"/><path class="cls-17" d="M233.82,212.52V189.44h23.09l1.07.72c3.06,7.87,3.4,15.71-.33,23.49C249.58,216,241.53,217.88,233.82,212.52Z" transform="translate(-26 -143.28)"/><path class="cls-18" d="M349.27,189.44h23.09v23.08c-7.79,5.32-15.86,3.62-24,1C345.22,205.34,344.19,197.28,349.27,189.44Z" transform="translate(-26 -143.28)"/><path class="cls-19" d="M626.36,212.52V189.44h23.09c5.11,7.78,4,15.82,1,23.93C642.31,216.22,634.21,217.82,626.36,212.52Z" transform="translate(-26 -143.28)"/><path class="cls-20" d="M741.81,189.44H764.9v23.08c-7.79,5.32-15.86,3.62-24,1C737.76,205.34,736.73,197.28,741.81,189.44Z" transform="translate(-26 -143.28)"/><path class="cls-21" d="M233.82,212.52h23.09c5.35,7.73,3.8,15.66.69,23.64-8,3.41-16,4.64-23.78-.56Z" transform="translate(-26 -143.28)"/><path class="cls-22" d="M349.27,212.52h23.09V235.6c-7.8,5.32-15.88,3.64-24,.94C345.36,228.41,344,220.34,349.27,212.52Z" transform="translate(-26 -143.28)"/><path class="cls-23" d="M626.36,212.52h23.09c5.35,7.73,3.8,15.66.69,23.64-8,3.41-16,4.64-23.78-.56Z" transform="translate(-26 -143.28)"/><path class="cls-24" d="M741.81,212.52H764.9V235.6c-7.8,5.32-15.88,3.64-24,.94C737.9,228.41,736.52,220.34,741.81,212.52Z" transform="translate(-26 -143.28)"/><path class="cls-4" d="M233.82,235.6h23.09l1,.63a25.87,25.87,0,0,1,0,21.83l-1,.63H233.82Z" transform="translate(-26 -143.28)"/><path class="cls-25" d="M349.27,235.6h23.09v23.09H349.27l-1.06-.69C345.56,250.39,343.91,242.83,349.27,235.6Z" transform="translate(-26 -143.28)"/><path class="cls-4" d="M626.36,235.6h23.09l1,.63a25.87,25.87,0,0,1,0,21.83l-1,.63H626.36Z" transform="translate(-26 -143.28)"/><path class="cls-26" d="M741.81,235.6H764.9v23.09H741.81l-1-.69C738.1,250.39,736.45,242.83,741.81,235.6Z" transform="translate(-26 -143.28)"/><path class="cls-27" d="M280,281.77H256.91V258.69c7.22-5.3,14.95-3.36,22.68-1.59a4.65,4.65,0,0,1,1.82,1.7C283.47,266.61,285.29,274.41,280,281.77Z" transform="translate(-26 -143.28)"/><path class="cls-24" d="M280,281.77V258.69c7.76-5.22,15.81-3.89,23.91-1,2.89,8.13,4.47,16.23-.82,24.09Z" transform="translate(-26 -143.28)"/><path class="cls-28" d="M303.09,281.77V258.69c7.76-5.33,15.81-3.81,23.91-1,2.89,8.13,4.47,16.23-.82,24.09Z" transform="translate(-26 -143.28)"/><path class="cls-29" d="M326.18,281.77V258.69c5.25-4.42,17.29-4.42,23.09,0v23.08Z" transform="translate(-26 -143.28)"/><path class="cls-30" d="M672.54,281.77H649.45V258.69c7.22-5.3,15-3.36,22.68-1.59a4.65,4.65,0,0,1,1.82,1.7C676,266.61,677.83,274.41,672.54,281.77Z" transform="translate(-26 -143.28)"/><path class="cls-31" d="M672.54,281.77V258.69c7.77-5.22,15.81-3.89,23.92-1,2.88,8.13,4.46,16.23-.83,24.09Z" transform="translate(-26 -143.28)"/><path class="cls-28" d="M695.63,281.77V258.69c7.76-5.33,15.81-3.81,23.91-1,2.9,8.13,4.47,16.23-.82,24.09Z" transform="translate(-26 -143.28)"/><path class="cls-26" d="M718.72,281.77V258.69c5.25-4.42,17.29-4.42,23.09,0v23.08Z" transform="translate(-26 -143.28)"/><path class="cls-32" d="M49.09,651.06V628H72.18c5.22,7.75,3.91,15.67.67,23.65C64.85,655,56.89,656.25,49.09,651.06Z" transform="translate(-26 -143.28)"/><path class="cls-33" d="M72.18,651.06V628H95.27c5.19,7.62,3.77,15.5,1,23.44-7.66,4.21-15.47,3.78-23.36.71Z" transform="translate(-26 -143.28)"/><path class="cls-17" d="M95.27,651.06V628h23.09v23.09l-.63,1a25.8,25.8,0,0,1-21.83,0Z" transform="translate(-26 -143.28)"/><path class="cls-34" d="M880.35,651.06V628h23.1c5.37,7.13,3.2,14.83,1.71,22.47a4.49,4.49,0,0,1-1.54,1.88c-7.56,2.53-15.11,3.21-22.61-.23Z" transform="translate(-26 -143.28)"/><path class="cls-35" d="M903.45,651.06V628h23.09c5.31,7.8,3.63,15.87.94,24C919.34,655,911.27,656.23,903.45,651.06Z" transform="translate(-26 -143.28)"/><path class="cls-36" d="M926.54,651.06V628h23.09c5.29,7.23,3.37,15,1.57,22.69a4.61,4.61,0,0,1-1.72,1.81c-6.15,2.67-12.55,1.72-18.9,1.29A4.5,4.5,0,0,1,926.54,651.06Z" transform="translate(-26 -143.28)"/><path class="cls-37" d="M949.63,651.06V628h23.09v23.09C966.94,655.45,955.24,655.45,949.63,651.06Z" transform="translate(-26 -143.28)"/><path class="cls-13" d="M118.36,651.06h23.09v23.08c-.24.35-.47.71-.71,1.07-7.88,3.06-15.72,3.4-23.5-.33C114.87,666.81,113,658.76,118.36,651.06Z" transform="translate(-26 -143.28)"/><path class="cls-38" d="M857.26,674.14V651.06h23.09c5.38,7.12,3.21,14.82,1.72,22.46a4.66,4.66,0,0,1-1.54,1.89c-7.56,2.52-15.11,3.2-22.61-.24Z" transform="translate(-26 -143.28)"/><path class="cls-39" d="M949.63,651.06h23.09v23.08c-7.79,5.32-15.87,3.61-24,1C945.57,667,944.55,658.89,949.63,651.06Z" transform="translate(-26 -143.28)"/><path class="cls-40" d="M141.45,674.14h23.09c5.28,7.88,3.77,16,.76,24.12-7.32,3.67-15,2-22.51,1.26a3.62,3.62,0,0,1-3.28-2.74C138.38,689.11,136.07,681.27,141.45,674.14Z" transform="translate(-26 -143.28)"/><path class="cls-41" d="M164.54,697.22V674.14h23.09v23.08l-.68,1C179.34,700.92,171.78,702.58,164.54,697.22Z" transform="translate(-26 -143.28)"/><path class="cls-42" d="M834.17,697.22V674.14h23.09c5.31,7.64,3.46,15.63,1.18,23.65-7.77,4.07-15.63,3.49-23.54.5Z" transform="translate(-26 -143.28)"/><path class="cls-43" d="M949.63,674.14h23.09v23.08H949.63l-1.06-.69C945.92,688.92,944.27,681.36,949.63,674.14Z" transform="translate(-26 -143.28)"/><path class="cls-44" d="M187.63,697.22h23.1c5.27,7.88,3.76,16,.75,24.12-7.32,3.67-14.95,2-22.51,1.26a3.63,3.63,0,0,1-3.28-2.74C184.57,712.19,182.25,704.35,187.63,697.22Z" transform="translate(-26 -143.28)"/><path class="cls-45" d="M210.73,720.3V697.22h23.09V720.3l-.69,1.05C225.52,724,218,725.66,210.73,720.3Z" transform="translate(-26 -143.28)"/><path class="cls-46" d="M788,720.3V697.22h23.09c5.31,7.64,3.46,15.63,1.17,23.65-7.76,4.07-15.62,3.49-23.53.5Z" transform="translate(-26 -143.28)"/><path class="cls-47" d="M811.08,720.3V697.22h23.09c5.41,7.09,3,14.91,2,22.57-.13,1-1.12,1.73-2.07,2.31C829.91,724.67,815.09,723.53,811.08,720.3Z" transform="translate(-26 -143.28)"/><path class="cls-48" d="M949.63,697.22V720.3H926.54l-1.09-.78c-3.47-6.87-2.05-14-1.22-21.16a3.59,3.59,0,0,1,2.84-3.17C934.71,694.25,942.55,691.75,949.63,697.22Z" transform="translate(-26 -143.28)"/><path class="cls-49" d="M233.82,720.3h23.09c5.28,7.88,3.76,16,.75,24.12-7.32,3.67-15,2-22.51,1.26a3.61,3.61,0,0,1-3.27-2.74C230.75,735.27,228.43,727.43,233.82,720.3Z" transform="translate(-26 -143.28)"/><path class="cls-50" d="M256.91,743.38V720.3H280v23.08l-.69,1C271.7,747.09,264.14,748.74,256.91,743.38Z" transform="translate(-26 -143.28)"/><path class="cls-51" d="M741.81,743.38V720.3H764.9c5.31,7.64,3.46,15.63,1.17,23.65-7.76,4.07-15.62,3.49-23.53.5Z" transform="translate(-26 -143.28)"/><path class="cls-52" d="M764.9,743.38V720.3H788c5.4,7.1,3,14.91,2,22.57-.13,1-1.13,1.73-2.07,2.31C783.73,747.75,768.91,746.61,764.9,743.38Z" transform="translate(-26 -143.28)"/><path class="cls-53" d="M926.54,720.3v23.08H903.45l-1.07-.71a29,29,0,0,1,.36-23.53C910.82,716.49,918.84,715.12,926.54,720.3Z" transform="translate(-26 -143.28)"/><path class="cls-54" d="M280,743.38h23.09c5.28,7.88,3.76,16,.75,24.12-7.32,3.67-14.95,2-22.51,1.26a3.61,3.61,0,0,1-3.27-2.74C276.93,758.35,274.61,750.51,280,743.38Z" transform="translate(-26 -143.28)"/><path class="cls-39" d="M303.09,766.46V743.38h23.09c5.32,7.8,3.63,15.87.94,24C319,770.37,310.91,771.74,303.09,766.46Z" transform="translate(-26 -143.28)"/><path class="cls-55" d="M326.18,766.46V743.38h23.09c5.32,7.8,3.63,15.87.94,24C342.07,770.37,334,771.74,326.18,766.46Z" transform="translate(-26 -143.28)"/><path class="cls-9" d="M349.27,766.46V743.38h23.09v23.08l-.69,1C364.06,770.17,356.5,771.82,349.27,766.46Z" transform="translate(-26 -143.28)"/><path class="cls-56" d="M649.45,766.46V743.38h23.09C677.84,751,676,759,673.71,767c-7.76,4.07-15.62,3.49-23.54.5Z" transform="translate(-26 -143.28)"/><path class="cls-42" d="M672.54,766.46V743.38h23.09c5.32,7.8,3.63,15.87.94,24C688.43,770.37,680.36,771.74,672.54,766.46Z" transform="translate(-26 -143.28)"/><path class="cls-57" d="M695.63,766.46V743.38h23.09c5.32,7.8,3.63,15.87.94,24C711.52,770.37,703.45,771.74,695.63,766.46Z" transform="translate(-26 -143.28)"/><path class="cls-58" d="M718.72,766.46V743.38h23.09c5.4,7.1,3,14.91,2,22.57-.13,1-1.13,1.74-2.07,2.31C737.55,770.83,722.73,769.69,718.72,766.46Z" transform="translate(-26 -143.28)"/><path class="cls-59" d="M880.35,766.46H857.26l-1.09-.78c-3.46-6.89-2.07-14.08-1.19-21.2a4,4,0,0,1,3.45-3.41c7.55-.83,15.2-2.38,22.44,1.56C884.36,750.65,885.54,758.62,880.35,766.46Z" transform="translate(-26 -143.28)"/><path class="cls-56" d="M880.35,766.46V743.38l.69-1c7.61-2.84,15.15-4,22.41,1v23.08Z" transform="translate(-26 -143.28)"/><path class="cls-60" d="M372.36,766.46h23.09c5.28,7.88,3.77,16,.75,24.12-7.32,3.67-14.95,2-22.51,1.26a3.62,3.62,0,0,1-3.27-2.74C369.29,781.43,367,773.59,372.36,766.46Z" transform="translate(-26 -143.28)"/><path class="cls-61" d="M395.45,789.54V766.46h23.09c5.32,7.8,3.63,15.87.94,24C411.35,793.45,403.27,794.82,395.45,789.54Z" transform="translate(-26 -143.28)"/><path class="cls-11" d="M418.54,789.54V766.46h23.09c5.32,7.8,3.63,15.87.94,24C434.44,793.45,426.36,794.82,418.54,789.54Z" transform="translate(-26 -143.28)"/><path class="cls-62" d="M441.63,789.54V766.46h23.09c5.32,7.8,3.63,15.87.94,24C457.53,793.45,449.45,794.82,441.63,789.54Z" transform="translate(-26 -143.28)"/><path class="cls-63" d="M464.72,789.54V766.46h23.09v23.08C482.48,794,470.05,794,464.72,789.54Z" transform="translate(-26 -143.28)"/><path class="cls-64" d="M303.09,166.36V144a2.69,2.69,0,0,1,.43-.46,1,1,0,0,1,.55-.21h22.11v23.08c-7.25,5-14.79,3.89-22.41,1C303.54,167.06,303.31,166.71,303.09,166.36Z" transform="translate(-26 -143.28)"/><path class="cls-65" d="M534,789.54V766.46h23.1c5.31,7.8,3.63,15.87.93,24C549.89,793.45,541.82,794.82,534,789.54Z" transform="translate(-26 -143.28)"/><path class="cls-66" d="M557.09,789.54V766.46h23.09c5.31,7.8,3.63,15.87.93,24C573,793.45,564.91,794.82,557.09,789.54Z" transform="translate(-26 -143.28)"/><path class="cls-67" d="M580.18,789.54V766.46h23.09c5.31,7.8,3.63,15.87.93,24C596.07,793.45,588,794.82,580.18,789.54Z" transform="translate(-26 -143.28)"/><path class="cls-28" d="M603.27,789.54V766.46h23.09c5.32,7.8,3.63,15.87.93,24C619.16,793.45,611.09,794.82,603.27,789.54Z" transform="translate(-26 -143.28)"/><path class="cls-68" d="M626.36,789.54V766.46h23.09c5.4,7.1,3,14.91,2,22.57-.13,1-1.13,1.74-2.07,2.31C645.19,793.91,630.36,792.77,626.36,789.54Z" transform="translate(-26 -143.28)"/><path class="cls-69" d="M834.17,789.54H811.08l-1.09-.79c-3.46-6.83-2-14-1.23-21a4,4,0,0,1,3.32-3.47c7.68-1,15.42-2.43,22.88,1.18C837.92,773.56,839.46,781.66,834.17,789.54Z" transform="translate(-26 -143.28)"/><path class="cls-70" d="M834.17,789.54V766.46c5.26-4.42,17.29-4.42,23.09,0v23.08Z" transform="translate(-26 -143.28)"/><path class="cls-71" d="M764.9,812.62H741.81l-1.09-.79c-3.46-6.83-2-14-1.24-21a4,4,0,0,1,3.33-3.47c7.68-1,15.42-2.43,22.87,1.18C768.65,796.65,770.18,804.74,764.9,812.62Z" transform="translate(-26 -143.28)"/><path class="cls-72" d="M764.9,812.62V789.54c7.76-5.32,15.81-3.81,23.91-1,2.9,8.14,4.47,16.23-.82,24.09Z" transform="translate(-26 -143.28)"/><path class="cls-73" d="M788,812.62V789.54c5.26-4.41,17.29-4.41,23.09,0v23.08Z" transform="translate(-26 -143.28)"/><path class="cls-74" d="M649.45,835.7H626.36c-5.41-7.1-3-14.92-2-22.57a3.6,3.6,0,0,1,3.22-2.78c7.54-.87,15.13-2.32,22.46,1.11C653.35,819.62,654.69,827.74,649.45,835.7Z" transform="translate(-26 -143.28)"/><path class="cls-52" d="M649.45,835.7V812.62c7.76-5.32,15.81-3.81,23.91-1,2.89,8.14,4.47,16.23-.82,24.09Z" transform="translate(-26 -143.28)"/><path class="cls-75" d="M672.54,835.7V812.62c7.76-5.32,15.81-3.81,23.91-1,2.9,8.14,4.47,16.23-.82,24.09Z" transform="translate(-26 -143.28)"/><path class="cls-55" d="M695.63,835.7V812.62c7.76-5.32,15.81-3.81,23.91-1,2.9,8.14,4.47,16.23-.82,24.09Z" transform="translate(-26 -143.28)"/><path class="cls-56" d="M718.72,835.7V812.62c5.25-4.41,17.29-4.41,23.09,0V835.7Z" transform="translate(-26 -143.28)"/><path class="cls-76" d="M256.91,189.44V166.36H280c5.32,7.79,3.61,15.86,1,24C272.81,193.49,264.75,194.52,256.91,189.44Z" transform="translate(-26 -143.28)"/><path class="cls-77" d="M280,189.44V166.36h23.09c5.32,7.8,3.63,15.87.93,24C295.89,193.35,287.82,194.73,280,189.44Z" transform="translate(-26 -143.28)"/><path class="cls-78" d="M72.18,720.3H49.09V697.22c7.75-5.22,15.68-3.91,23.66-.68C76.14,704.55,77.38,712.5,72.18,720.3Z" transform="translate(-26 -143.28)"/><path class="cls-22" d="M72.18,720.3V697.22l.74-1.08c6.89-3.51,14.09-2.08,21.22-1.2a3.91,3.91,0,0,1,3.41,3.41c.88,7.13,2.31,14.32-1.2,21.21l-1.08.74Z" transform="translate(-26 -143.28)"/><path class="cls-55" d="M118.36,743.38H95.27V720.3c7.64-5.17,15.63-3.73,23.67-1.26a28.48,28.48,0,0,1,.49,23.62Z" transform="translate(-26 -143.28)"/><path class="cls-79" d="M141.45,766.46H118.36V743.38c7.23-5.3,15-3.36,22.68-1.58a4.49,4.49,0,0,1,1.82,1.69C144.92,751.3,146.74,759.1,141.45,766.46Z" transform="translate(-26 -143.28)"/><path class="cls-80" d="M141.45,766.46V743.38c7.62-5.33,15.62-3.62,23.65-1.27a28.46,28.46,0,0,1,.52,23.63l-1.08.72Z" transform="translate(-26 -143.28)"/><path class="cls-81" d="M187.63,789.54H164.54V766.46c7.23-5.3,15-3.36,22.68-1.58a4.49,4.49,0,0,1,1.82,1.69C191.1,774.39,192.92,782.18,187.63,789.54Z" transform="translate(-26 -143.28)"/><path class="cls-82" d="M187.63,789.54V766.46c7.77-5.22,15.81-3.88,23.92-1,2.89,8.14,4.47,16.23-.82,24.09Z" transform="translate(-26 -143.28)"/><path class="cls-83" d="M210.73,789.54V766.46c3.88-3.18,19-4.41,23.06-1.86a4.39,4.39,0,0,1,2.32,2.93c.84,7.14,2.25,14.33-1.2,21.23l-1.09.78Z" transform="translate(-26 -143.28)"/><path class="cls-84" d="M256.91,812.62H233.82V789.54c7.78-5.11,15.81-4,23.93-1C260.6,796.68,262.2,804.77,256.91,812.62Z" transform="translate(-26 -143.28)"/><path class="cls-85" d="M256.91,812.62V789.54c3.88-3.18,19-4.41,23.06-1.86a4.39,4.39,0,0,1,2.32,2.93c.84,7.14,2.26,14.33-1.2,21.23l-1.09.78Z" transform="translate(-26 -143.28)"/><path class="cls-86" d="M303.09,835.7H280V812.62c7.78-5.11,15.82-4,23.93-1C306.79,819.76,308.39,827.85,303.09,835.7Z" transform="translate(-26 -143.28)"/><path class="cls-51" d="M303.09,835.7V812.62c7.76-5.32,15.81-3.81,23.91-1,2.89,8.14,4.47,16.23-.82,24.09Z" transform="translate(-26 -143.28)"/><path class="cls-80" d="M326.18,835.7V812.62c7.76-5.32,15.81-3.81,23.91-1,2.9,8.14,4.47,16.23-.82,24.09Z" transform="translate(-26 -143.28)"/><path class="cls-87" d="M349.27,835.7V812.62c7.76-5.32,15.81-3.81,23.91-1,2.9,8.14,4.47,16.23-.82,24.09Z" transform="translate(-26 -143.28)"/><path class="cls-88" d="M372.36,835.7V812.62c4-3.23,18.83-4.37,23-1.81.94.58,1.94,1.32,2.07,2.32,1,7.65,3.4,15.47-2,22.57Z" transform="translate(-26 -143.28)"/><path class="cls-89" d="M49.09,651.06H72.18c5.12,7.77,4,15.81,1,23.92-8.14,2.85-16.24,4.45-24.09-.84Z" transform="translate(-26 -143.28)"/><path class="cls-90" d="M49.09,674.14H72.18c4.42,5.25,4.42,17.28,0,23.08H49.09Z" transform="translate(-26 -143.28)"/><path d="M72.18,697.22V651.06H95.27c3.41,2.54,3,6.3,3.18,9.89.43,7.88,2.13,9.58,10,10,3.58.19,7.35-.23,9.89,3.18h23.09v23.08h46.18V720.3h46.19v23.08H280v23.08h92.36v23.08H649.45V766.46h92.36V743.38H788V720.3h46.18V697.22h23.09c2.55-3.41,6.31-3,9.9-3.18,7.89-.43,9.59-2.13,10-10,.19-3.59-.23-7.35,3.17-9.89,2.55-3.41,6.31-3,9.9-3.18,7.89-.43,9.59-2.13,10-10,.19-3.59-.23-7.35,3.18-9.89h46.18v46.16H926.54V720.3H903.45c-2.55,3.4-6.31,3-9.9,3.17-7.89.43-9.59,2.13-10,10-.19,3.58.23,7.34-3.18,9.89H857.26v23.08H811.08v23.08H741.81v23.08H626.36V835.7H395.45V812.62H280V789.54H233.82V766.46H187.63c-3.4-2.55-3-6.31-3.17-9.89-.43-7.89-2.13-9.59-10-10-3.59-.19-7.35.23-9.9-3.17H141.45c-3.4-2.55-3-6.31-3.17-9.89-.43-7.89-2.13-9.59-10-10-3.59-.19-7.35.23-9.9-3.17H95.27V697.22Z" transform="translate(-26 -143.28)"/><path d="M280,189.44h23.09c5.84-4.4,17.25-4.4,23.09,0h23.09v69.25H280c-3.41-2.55-3-6.31-3.18-9.9-.43-7.88-2.13-9.58-10-10-3.58-.19-7.35.23-9.89-3.18V189.44Z" transform="translate(-26 -143.28)"/><ellipse class="cls-91" cx="288.63" cy="34.62" rx="16.33" ry="16.32"/><path d="M741.81,258.69H672.54c-3.41-2.55-3-6.31-3.18-9.9-.43-7.88-2.13-9.58-10-10-3.58-.19-7.35.23-9.89-3.18V189.44h92.36v69.25Z" transform="translate(-26 -143.28)"/><path class="cls-74" d="M256.91,235.6H280v23.09H256.91Z" transform="translate(-26 -143.28)"/><path class="cls-74" d="M649.45,235.6h23.09v23.09H649.45Z" transform="translate(-26 -143.28)"/><path class="cls-74" d="M118.36,674.14H95.27V651.06h23.09Z" transform="translate(-26 -143.28)"/><path class="cls-92" d="M903.45,651.06v23.08h-23.1V651.06Z" transform="translate(-26 -143.28)"/><path class="cls-93" d="M880.35,674.14v23.08H857.26V674.14Z" transform="translate(-26 -143.28)"/><path class="cls-90" d="M880.35,743.38V720.3h23.1v23.08Z" transform="translate(-26 -143.28)"/><path class="cls-77" d="M118.36,720.3h23.09v23.08H118.36Z" transform="translate(-26 -143.28)"/><path class="cls-94" d="M164.54,743.38h23.09v23.08H164.54Z" transform="translate(-26 -143.28)"/></svg>